<mxfile host="app.diagrams.net" modified="2024-06-27T16:04:23.277Z" agent="Mozilla/5.0 (X11; Ubuntu; Linux x86_64; rv:126.0) Gecko/20100101 Firefox/126.0" version="24.6.3" etag="WUZYr-8HNVJU3-pvBf2Y" type="github">
  <diagram name="PÃ¡gina-1" id="tBpIpc8XCZnSV9r-ODjS">
    <mxGraphModel>
      <root>
        <mxCell id="0" />
        <mxCell id="1" parent="0" />
      </root>
    </mxGraphModel>
  </diagram>
</mxfile>
